<svg xmlns="http://www.w3.org/2000/svg" xmlns:xlink="http://www.w3.org/1999/xlink" width="2000" zoomAndPan="magnify" viewBox="0 0 1500 1499.999933" height="2000" preserveAspectRatio="xMidYMid meet" version="1.0"><defs><clipPath id="18493678e1"><path d="M 0.878906 0.480469 L 790.472656 0.480469 L 790.472656 669.550781 L 0.878906 669.550781 Z M 0.878906 0.480469 " clip-rule="nonzero"/></clipPath><clipPath id="897f5e52ad"><path d="M 800.226562 0.480469 L 1339.15625 0.480469 L 1339.15625 639.210938 L 800.226562 639.210938 Z M 800.226562 0.480469 " clip-rule="nonzero"/></clipPath><clipPath id="7c4c86a0c4"><rect x="0" width="1340" y="0" height="670"/></clipPath></defs><g transform="matrix(1, 0, 0, 1, 80, 415)"><g clip-path="url(#7c4c86a0c4)"><g clip-path="url(#18493678e1)"><path fill="#ee5a24" d="M 467.300781 203.167969 L 0.957031 669.515625 L 0.957031 467.191406 L 467.300781 0.480469 Z M 323.804688 466.464844 L 323.804688 669.515625 L 646.652344 347.027344 L 646.652344 669.515625 L 790.152344 526.015625 L 790.152344 0.480469 Z M 323.804688 466.464844 " fill-opacity="1" fill-rule="nonzero"/></g><g clip-path="url(#897f5e52ad)"><path fill="#ee5a24" d="M 997.730469 639.09375 L 997.730469 238.074219 L 1161.46875 238.074219 L 1161.46875 639.09375 Z M 910.503906 164.445312 L 800.277344 0.703125 L 1339.207031 0.703125 L 1339.207031 164.445312 Z M 910.503906 164.445312 " fill-opacity="1" fill-rule="nonzero"/></g></g></g></svg>